<svg width="65" height="60" viewBox="0 0 65 60" fill="none" xmlns="http://www.w3.org/2000/svg">
<path d="M10.956 3.70596C13.4573 1.25263 16.8253 -0.227373 21.8013 0.0286268C29.652 0.43396 33.4227 5.61796 33.4227 11.21C33.4227 13.906 31.9933 17.5113 30.02 20.0713C29.9 19.954 29.7987 19.8393 29.6733 19.722C29.2439 19.3276 28.8082 18.94 28.3667 18.5593C27.076 17.4366 25.62 16.146 24.6413 14.7566C26.7933 10.9886 25.564 5.65263 21.0173 5.65263C18.356 5.65263 16.1373 7.99929 16.3267 11.1113C15.6333 12.5833 15.2947 14.7166 15.428 16.61C14.124 15.8233 13.0253 14.962 12.508 13.7646L10.8387 9.91129L9.524 13.89C9.21406 14.8674 9.13375 15.9031 9.28933 16.9166L9.26267 16.914C8.41631 15.6695 7.90645 14.2272 7.78267 12.7273C7.30267 7.63929 9.82 4.82329 10.956 3.70596ZM9.756 21.9033C10.06 20.746 7.68133 18.7753 6.796 18.4073C10.06 18.282 11.684 18.874 11.684 18.874C10.8307 17.6633 10.556 15.818 11.0387 14.354C12.8173 18.458 19.1773 19.1166 20.7507 22.5193C20.5267 21.0526 19.084 19.402 17.4093 18.4393C16.5107 16.2046 17.1827 12.0846 18.2813 10.9513C17.8947 16.8713 26.6787 20.258 28.5 24.5646C27.4333 20.8766 23.3373 18.5433 21.396 16.3353C20.756 14.8686 21.2467 12.3886 21.9427 11.538C21.7373 15.506 26.188 18.5993 28.564 20.818C31.3667 23.4286 32.1613 25.738 31.7827 27.626C32.396 27.7806 33.2413 28.354 33.0973 29.3273C33.9933 29.1273 34.9027 28.1406 35.124 27.5326C35.564 30.4766 33.764 33.594 31.748 34.522C31.748 34.522 32.2893 33.1166 31.372 32.042C30.4653 30.9806 27.892 30.9673 27.0227 31.0286C27.0227 31.0286 28.0893 29.5086 27.668 28.7353C27.1347 27.7833 22.1027 28.202 19.8547 28.986C20.62 28.906 22.4333 29.1033 23.068 29.3593C22.716 29.8633 21.7933 31.9966 22.4547 32.6366C23.068 33.2233 23.868 32.2046 23.868 32.2046C23.868 32.2046 23.084 34.538 23.6493 35.0793C24.2093 35.6206 25.4147 35.2366 25.4147 35.2366C24.6653 37.0686 21.7373 38.33 19.692 38.33C20.4227 38.106 21.6253 36.8553 21.812 36.1006C21.2787 36.3593 19.876 36.5086 19.3373 36.4126C19.9987 36.154 21.3267 34.514 20.916 32.666C20.3053 29.9753 16.4093 29.634 14.4493 30.9353C15.084 29.1273 16.9827 27.4366 18.468 26.882C17.4952 26.5634 16.4994 26.32 15.4893 26.154C16.7373 25.17 19.868 24.3673 21.4653 24.45C19.028 23.85 14.5693 24.602 12.5267 26.922C13.18 26.922 14.86 27.226 15.508 27.4286C12.7133 27.914 8.9 30.4206 7.78 31.6046C8.07333 30.0473 8.52667 28.7246 8.14267 27.7913C7.604 26.466 5.94 25.914 2.62267 26.5726C4.86267 24.4153 9.44667 23.0793 9.756 21.9033ZM25.02 23.9913C25.4627 25.4926 26.06 26.8713 27.9453 26.8713C27.9453 26.8713 27.284 24.794 25.02 23.9913ZM52.964 40.5326C54.3853 40.7673 56.3827 42.226 56.3827 44.3113C56.3827 47.7113 51.9773 48.7566 49.54 48.2286C52.1267 46.5006 51.78 41.53 48.6707 39.754C49.724 42.5406 46.564 45.306 43.492 42.8793C41.7827 41.53 37.8307 38.362 36.0653 36.9966C34.3053 35.634 32.2413 36.426 31.4253 35.8313C30.4973 35.154 31.092 33.2446 29.8253 32.5353C28.7613 31.9433 27.7187 32.274 26.484 31.8793C25.364 31.5246 24.5293 30.6846 24.6707 29.554C24.196 30.362 24.164 31.7673 25.0147 32.7166C25.8573 33.6553 27.2653 34.2366 27.8467 35.2686C28.5987 36.602 27.332 38.458 30.6787 40.9833C32.2787 42.1886 34.7587 44.17 36.3773 45.5353C39.1 47.834 37.6467 50.7086 38.004 53.2126C38.4173 56.1353 40.8627 57.7566 42.4893 58.1673C41.0867 56.9406 40.556 53.8473 42.5267 51.954C42.628 54.3966 44.46 58.2206 48.6387 59.2953C53.084 60.434 57.8093 58.01 58.7907 56.3033C57.076 57.05 53.8467 56.2446 52.516 55.0446C57.732 55.7566 62.3453 52.2766 62.3453 47.8126C62.3453 43.458 57.9587 40.0846 52.964 40.5326ZM30.2973 42.6473C28.5187 45.5806 24.7293 49.3966 20.8867 49.3966C13.8173 49.3966 10.2733 39.77 18.2013 31.8926C17.8554 31.7879 17.4961 31.734 17.1347 31.7326C16.4547 31.7326 15.7907 31.9033 15.3533 32.1966L12.2387 34.266L12.9427 30.4473C13.0131 30.2424 13.0959 30.0421 13.1907 29.8473C11.3907 30.706 9.62 31.9326 8.956 32.634L5.88667 35.874L6.212 31.3326C6.28311 30.9771 6.35422 30.6349 6.42533 30.306C6.58533 29.5726 6.78533 28.658 6.66267 28.354C6.61625 28.2518 6.5388 28.1669 6.44133 28.1113C4.98 29.194 0.972 32.6073 0.5 37.6233C0.5 37.6233 1.276 36.57 1.95067 36.3246C2.396 36.1593 2.78533 36.37 2.35867 37.6233C2.196 38.114 -1.668 48.1833 5.932 55.1433C5.932 55.1433 5.1 53.0953 5.60133 52.4766C5.84667 52.1726 6.16667 52.1486 6.604 52.69C6.932 53.106 7.27333 53.506 7.772 54.05C8.27067 54.594 8.964 55.242 9.716 55.802C11.9907 57.3353 15.0787 58.5673 18.5933 58.5673C27.996 58.5673 32.98 52.3273 35.74 47.0873C35.6095 46.9466 35.4715 46.8131 35.3267 46.6873C33.6781 45.3052 32.0031 43.9582 30.2973 42.6473ZM35.3907 34.9566C35.9453 35.1353 36.5107 35.378 37.0627 35.8073C37.7133 36.3086 38.6707 37.0633 39.6947 37.8766C40.5107 36.1433 42.3853 32.5353 45.2867 29.3326C47.9 26.4526 52.46 26.1753 54.8547 27.93C56.3933 26.5913 61.7053 25.3326 64.5 26.098C62.796 24.3166 59.1773 21.9273 55.1773 21.9273C51.8787 21.9273 50.0147 23.482 49.5427 22.7806C48.9347 21.8846 51.7747 20.5593 51.7747 20.5593C47.8813 20.714 45.0467 25.122 43.8653 24.5726C43.1667 24.2526 44.9187 22.1193 44.9187 22.1193C41.356 24.1086 38.372 28.3273 37.7507 30.8953C41.028 27.034 47.388 24.266 51.5267 24.85C44.516 25.1753 38.484 30.9193 35.3933 34.9566H35.3907Z" fill="white"/>
</svg>
