<svg width="32" height="32" viewBox="0 0 32 32" fill="none" xmlns="http://www.w3.org/2000/svg">
<path fill-rule="evenodd" clip-rule="evenodd" d="M31.9543 3.42857C31.9854 3.04842 32.0006 2.66714 32 2.28571V1.90592e-07H28C25.0322 -0.000494423 22.1444 0.961716 19.77 2.74217C17.3957 4.52262 15.663 7.02524 14.832 9.87428C13.5511 8.22207 11.909 6.88511 10.0313 5.96592C8.15372 5.04672 6.09054 4.5697 4 4.57143H0V6.85714C0 10.4944 1.44489 13.9827 4.01682 16.5546C6.58874 19.1265 10.077 20.5714 13.7143 20.5714H14.2857V30.2857C14.2857 30.7404 14.4663 31.1764 14.7878 31.4979C15.1093 31.8194 15.5453 32 16 32C16.4546 32 16.8907 31.8194 17.2122 31.4979C17.5337 31.1764 17.7143 30.7404 17.7143 30.2857V16H18.2857C21.7255 16.0005 25.0398 14.7084 27.5716 12.3798C30.1033 10.0513 31.6676 6.85636 31.9543 3.42857ZM17.776 12.5714C18.0571 10.0567 19.2554 7.73385 21.1416 6.04711C23.0278 4.36036 25.4696 3.42808 28 3.42857H28.5097C28.2285 5.94329 27.0303 8.26614 25.1441 9.95289C23.2579 11.6396 20.8161 12.5719 18.2857 12.5714H17.776ZM4 8C6.53039 7.99951 8.97217 8.93178 10.8584 10.6185C12.7446 12.3053 13.9428 14.6281 14.224 17.1428H13.7143C11.1839 17.1433 8.7421 16.2111 6.8559 14.5243C4.96969 12.8376 3.77144 10.5147 3.49028 8H4Z" fill="black"/>
</svg>
