<svg width="22" height="22" viewBox="0 0 22 22" fill="none" xmlns="http://www.w3.org/2000/svg">
<mask id="path-1-inside-1_300_1333" fill="white">
<path d="M9.54531 17C10.2703 14.375 12.8053 12.5 15.7253 12.81C18.5053 13.105 20.7153 15.45 20.8553 18.24C20.8903 18.975 20.7903 19.68 20.5753 20.335C20.4453 20.735 20.0553 21 19.6303 21H4.73931C2.21531 21 0.322314 18.6905 0.817314 16.2155L3.86031 1H9.86031L11.8603 4.5L7.57531 7.565L6.36031 6"/>
</mask>
<path d="M15.7253 12.81L15.6197 13.8044L15.6198 13.8044L15.7253 12.81ZM20.8553 18.24L21.8542 18.1924L21.8541 18.1899L20.8553 18.24ZM20.5753 20.335L19.6252 20.0231L19.6243 20.0259L20.5753 20.335ZM0.817314 16.2155L1.79789 16.4116L1.7979 16.4116L0.817314 16.2155ZM3.86031 1V0H3.0405L2.87973 0.80389L3.86031 1ZM9.86031 1L10.7286 0.503861L10.4406 0H9.86031V1ZM11.8603 4.5L12.4421 5.31335L13.1766 4.78796L12.7286 4.00386L11.8603 4.5ZM7.57531 7.565L6.78542 8.17824L7.37505 8.93773L8.15709 8.37835L7.57531 7.565ZM10.5092 17.2662C11.1087 15.0956 13.204 13.548 15.6197 13.8044L15.8309 11.8156C12.4066 11.4521 9.43191 13.6544 8.5814 16.7338L10.5092 17.2662ZM15.6198 13.8044C17.9085 14.0473 19.7412 15.9901 19.8566 18.2901L21.8541 18.1899C21.6895 14.9099 19.1022 12.1627 15.8308 11.8156L15.6198 13.8044ZM19.8564 18.2876C19.8856 18.9006 19.8022 19.4838 19.6252 20.0231L21.5254 20.6469C21.7784 19.8762 21.895 19.0494 21.8542 18.1924L19.8564 18.2876ZM19.6243 20.0259C19.6274 20.0164 19.6318 20.0087 19.6357 20.0035C19.6376 20.001 19.6391 19.9994 19.6402 19.9984C19.6412 19.9974 19.6418 19.997 19.6418 19.997C19.6418 19.997 19.6415 19.9972 19.6406 19.9976C19.6398 19.998 19.6388 19.9985 19.6376 19.9989C19.6351 19.9996 19.6326 20 19.6303 20V22C20.4554 22 21.2525 21.4867 21.5263 20.6441L19.6243 20.0259ZM19.6303 20H4.73931V22H19.6303V20ZM4.73931 20C2.84648 20 1.42663 18.2679 1.79789 16.4116L-0.163267 16.0194C-0.782001 19.1131 1.58415 22 4.73931 22V20ZM1.7979 16.4116L4.8409 1.19611L2.87973 0.80389L-0.163268 16.0194L1.7979 16.4116ZM3.86031 2H9.86031V0H3.86031V2ZM8.99207 1.49614L10.9921 4.99614L12.7286 4.00386L10.7286 0.503861L8.99207 1.49614ZM11.2785 3.68665L6.99354 6.75165L8.15709 8.37835L12.4421 5.31335L11.2785 3.68665ZM8.36521 6.95176L7.15021 5.38676L5.57042 6.61324L6.78542 8.17824L8.36521 6.95176Z" fill="#48A4D5" mask="url(#path-1-inside-1_300_1333)"/>
<path d="M9.54531 17C10.2703 14.375 12.8053 12.5 15.7253 12.81C18.5053 13.105 20.7153 15.45 20.8553 18.24C20.8903 18.975 20.7903 19.68 20.5753 20.335C20.4453 20.735 20.0553 21 19.6303 21H4.73931C2.21531 21 0.322314 18.6905 0.817314 16.2155L3.86031 1H9.86031L11.8603 4.5L7.57531 7.565L6.36031 6M7.58031 7.565L9.86031 16" stroke="#48A4D5" stroke-miterlimit="2" stroke-linecap="round" stroke-linejoin="round"/>
</svg>
