<svg width="32" height="32" viewBox="0 0 32 32" fill="none" xmlns="http://www.w3.org/2000/svg">
<path d="M23.619 12.1905C22.6087 12.1905 21.6397 11.7891 20.9253 11.0747C20.2109 10.3603 19.8095 9.3913 19.8095 8.38095C19.8095 7.3706 20.2109 6.40164 20.9253 5.68721C21.6397 4.97279 22.6087 4.57143 23.619 4.57143C24.6294 4.57143 25.5984 4.97279 26.3128 5.68721C27.0272 6.40164 27.4286 7.3706 27.4286 8.38095C27.4286 9.3913 27.0272 10.3603 26.3128 11.0747C25.5984 11.7891 24.6294 12.1905 23.619 12.1905ZM18.941 10.8952L0 29.8514L2.14857 32L21.1048 13.059C20.1905 12.5562 19.4438 11.8095 18.941 10.8952ZM16.7619 6.09524L17.7219 4.00762L19.8095 3.04762L17.7219 2.08762L16.7619 0L15.8171 2.08762L13.7143 3.04762L15.8171 4.00762L16.7619 6.09524ZM28.9524 6.09524L29.9124 4.00762L32 3.04762L29.9124 2.08762L28.9524 0L28.0076 2.08762L25.9048 3.04762L28.0076 4.00762L28.9524 6.09524ZM28.9524 12.1905L28.0076 14.2781L25.9048 15.2381L28.0076 16.1981L28.9524 18.2857L29.9124 16.1981L32 15.2381L29.9124 14.2781L28.9524 12.1905Z" fill="#1C1C1C"/>
</svg>
