<svg width="34" height="28" viewBox="0 0 34 28" fill="none" xmlns="http://www.w3.org/2000/svg">
<path d="M26.6 26.8L32.7184 20.6816C32.8985 20.5017 32.9998 20.2577 33 20.0032V11.6C33 10.9634 32.7471 10.353 32.297 9.90289C31.8469 9.45281 31.2365 9.19995 30.6 9.19995C29.9635 9.19995 29.353 9.45281 28.9029 9.90289C28.4528 10.353 28.2 10.9634 28.2 11.6V18.8" stroke="black" stroke-width="2" stroke-linecap="round" stroke-linejoin="round"/>
<path d="M26.6 20.4L27.9728 19.0272C28.0452 18.9553 28.1026 18.8698 28.1416 18.7756C28.1806 18.6814 28.2005 18.5803 28.2 18.4784C28.1989 18.3347 28.1583 18.1941 28.0827 18.0719C28.007 17.9497 27.8993 17.8506 27.7712 17.7856L27.0624 17.432C26.4619 17.1317 25.7822 17.0279 25.1194 17.1353C24.4567 17.2427 23.8445 17.5558 23.3696 18.0304L21.9376 19.4624C21.3374 20.0623 21.0002 20.8761 21 21.7247V26.8M7.4 26.8L1.2816 20.6816C1.10151 20.5017 1.00022 20.2577 1 20.0032V11.6C1 10.9634 1.25286 10.353 1.70294 9.90289C2.15303 9.45281 2.76348 9.19995 3.4 9.19995C4.03652 9.19995 4.64697 9.45281 5.09706 9.90289C5.54714 10.353 5.8 10.9634 5.8 11.6V18.8" stroke="black" stroke-width="2" stroke-linecap="round" stroke-linejoin="round"/>
<path d="M7.39999 20.4L6.02719 19.0272C5.88383 18.8802 5.80249 18.6837 5.79999 18.4784C5.79999 18.1856 5.96639 17.9184 6.22879 17.7856L6.93759 17.432C7.53809 17.1317 8.21781 17.0279 8.88054 17.1353C9.54327 17.2427 10.1554 17.5558 10.6304 18.0304L12.0624 19.4624C12.6625 20.0623 12.9998 20.8761 13 21.7248V26.8M19.6672 14H14.3328V10.2672H10.6V4.93275H14.3328V1.19995H19.6672V4.93275H23.4V10.2672H19.6672V14Z" stroke="black" stroke-width="2" stroke-linecap="round" stroke-linejoin="round"/>
</svg>
