<svg width="32" height="26" viewBox="0 0 32 26" fill="none" xmlns="http://www.w3.org/2000/svg">
<path d="M31.8935 10.2061C31.7735 9.84868 31.5552 9.53228 31.2636 9.29324C30.972 9.05419 30.6189 8.90217 30.2448 8.85462C27.9562 8.54698 25.7535 7.77933 23.7693 6.59791L25.0619 5.30657C25.6065 4.71099 25.9004 3.92831 25.8823 3.12149C25.8643 2.31468 25.5357 1.54592 24.9651 0.975271C24.3944 0.404624 23.6257 0.0760764 22.8189 0.0580351C22.012 0.0399939 21.2294 0.33385 20.6338 0.878418L18.9789 2.53459C18.6867 2.18355 18.5012 1.92779 18.426 1.82122C18.2581 1.58137 18.0397 1.38118 17.7862 1.2347C17.5327 1.08822 17.2503 0.999004 16.9586 0.973317C16.667 0.947629 16.3732 0.986092 16.098 1.08601C15.8228 1.18592 15.5729 1.34486 15.3656 1.55167L10.5212 6.39982C10.3146 6.60696 10.1557 6.8568 10.0559 7.13181C9.95598 7.40683 9.91748 7.70037 9.94304 7.99184C9.9686 8.28332 10.0576 8.56567 10.2038 8.8191C10.3501 9.07253 10.55 9.29091 10.7895 9.45891C10.8974 9.53413 11.1531 9.71969 11.5042 10.0118L0.821167 20.6935C0.276599 21.2891 -0.0172571 22.0718 0.000784165 22.8786C0.0188254 23.6854 0.347374 24.4542 0.91802 25.0248C1.48867 25.5955 2.25743 25.924 3.06424 25.9421C3.87106 25.9601 4.65374 25.6663 5.24932 25.1217L15.5675 14.8023C16.7486 16.7866 17.5162 18.9892 17.8242 21.2778C17.8723 21.651 18.0244 22.0032 18.2632 22.294C18.502 22.5849 18.8177 22.8027 19.1744 22.9227C19.3825 22.9929 19.6005 23.0288 19.8201 23.0292C20.0826 23.0291 20.3424 22.9771 20.5847 22.8762C20.8269 22.7753 21.0469 22.6274 21.2318 22.4412L31.4095 12.2622C31.6752 11.9996 31.8615 11.6674 31.9471 11.3038C32.0327 10.9401 32.0141 10.5597 31.8935 10.2061ZM22.0568 2.29638C22.1574 2.1766 22.2818 2.07905 22.4221 2.00991C22.5624 1.94077 22.7156 1.90157 22.8718 1.89478C23.0281 1.88799 23.1841 1.91377 23.3299 1.97049C23.4757 2.0272 23.608 2.1136 23.7187 2.22421C23.8293 2.33481 23.9157 2.46721 23.9724 2.61299C24.0291 2.75877 24.0549 2.91475 24.0481 3.07103C24.0413 3.2273 24.0021 3.38046 23.933 3.52078C23.8638 3.66109 23.7663 3.7855 23.6465 3.8861L22.0731 5.45953C21.4715 5.00684 20.8972 4.51913 20.3529 3.99894L22.0568 2.29638ZM3.83011 23.7025C3.7295 23.8223 3.6051 23.9198 3.46478 23.9889C3.32446 24.0581 3.17131 24.0973 3.01503 24.1041C2.85876 24.1109 2.70278 24.0851 2.55699 24.0284C2.41121 23.9717 2.27882 23.8853 2.16821 23.7747C2.0576 23.664 1.9712 23.5316 1.91449 23.3859C1.85778 23.2401 1.832 23.0841 1.83878 22.9278C1.84557 22.7716 1.88478 22.6184 1.95391 22.4781C2.02305 22.3378 2.1206 22.2134 2.24038 22.1128L12.9698 11.3834C13.4904 11.9268 13.9781 12.5008 14.4303 13.1022L3.83011 23.7025ZM19.8138 21.0132C18.7106 12.785 12.6325 8.30047 11.9405 7.81778L16.7874 2.96963C17.2713 3.65918 21.7559 9.73975 29.9828 10.8405L19.8138 21.0132Z" fill="black"/>
</svg>
