<svg width="32" height="32" viewBox="0 0 32 32" fill="none" xmlns="http://www.w3.org/2000/svg">
<path d="M13.9808 0.36377L12.9299 4.03714L7.57343 3.17194L7.37185 4.42003L12.5799 5.26108L11.5706 8.78976L12.7861 9.13747L13.5321 6.52994C19.7933 7.53382 25.5329 8.33524 32 7.66804C26.6572 5.00727 20.7371 4.17724 14.4908 3.17843L15.1963 0.711543L13.9807 0.363837L13.9808 0.36377ZM9.33382 8.51139L8.4218 9.38763L13.133 14.2916L9.09922 16.6205L9.73151 17.7157L12.7146 15.9934C18.3452 21.8439 23.5884 27.1001 30.8226 31.6363C27.5294 25.0637 22.097 19.6519 16.4797 13.8197L19.1975 12.2505L18.5653 11.1552L14.2612 13.6402L9.33382 8.51146V8.51139ZM3.44107 9.41949L2.2356 9.80142L3.65227 14.2725L0 15.1934L0.309147 16.4195L2.93548 15.7572C4.65101 21.1441 6.33651 26.0277 9.63911 30.7762C9.79537 25.3091 8.07321 20.2679 6.35903 14.894L8.91569 14.2495L8.60654 13.0234L4.88054 13.9628L3.44107 9.41949Z" fill="black"/>
</svg>
